<?xml version="1.0" encoding="UTF-8" standalone="no"?>
<svg
   xmlns:dc="http://purl.org/dc/elements/1.1/"
   xmlns:cc="http://creativecommons.org/ns#"
   xmlns:rdf="http://www.w3.org/1999/02/22-rdf-syntax-ns#"
   xmlns:svg="http://www.w3.org/2000/svg"
   xmlns="http://www.w3.org/2000/svg"
   xmlns:sodipodi="http://sodipodi.sourceforge.net/DTD/sodipodi-0.dtd"
   xmlns:inkscape="http://www.inkscape.org/namespaces/inkscape"
   data-name="Layer 1"
   viewBox="0 0 89.420059 98.340164"
   x="0px"
   y="0px"
   version="1.1"
   id="svg10"
   sodipodi:docname="teacher.svg"
   width="89.420059"
   height="98.340164"
   inkscape:version="0.92.2 (5c3e80d, 2017-08-06)">
  <metadata
     id="metadata16">
    <rdf:RDF>
      <cc:Work
         rdf:about="">
        <dc:format>image/svg+xml</dc:format>
        <dc:type
           rdf:resource="http://purl.org/dc/dcmitype/StillImage" />
        <dc:title>Artboard 8</dc:title>
      </cc:Work>
    </rdf:RDF>
  </metadata>
  <defs
     id="defs14" />
  <sodipodi:namedview
     pagecolor="#ffffff"
     bordercolor="#666666"
     borderopacity="1"
     objecttolerance="10"
     gridtolerance="10"
     guidetolerance="10"
     inkscape:pageopacity="0"
     inkscape:pageshadow="2"
     inkscape:window-width="3794"
     inkscape:window-height="2332"
     id="namedview12"
     showgrid="false"
     fit-margin-top="0"
     fit-margin-left="0"
     fit-margin-right="0"
     fit-margin-bottom="0"
     inkscape:zoom="15.104"
     inkscape:cx="25.926031"
     inkscape:cy="62.726207"
     inkscape:window-x="0"
     inkscape:window-y="0"
     inkscape:window-maximized="0"
     inkscape:current-layer="svg10" />
  <title
     id="title2">Artboard 8</title>
  <path
     d="m 83.790061,64.91 h -50.61 V 47.09 a 10.18,10.18 0 0 0 11.53,-0.74 l 12.5,-9.85 a 10.27,10.27 0 0 0 2.5,-13.41 10.18,10.18 0 0 0 -15,-2.68 l -6.18,4.87 -6.3,-5.2 a 10.15,10.15 0 0 0 -2.48,-1.5 15.33,15.33 0 0 0 -2.04,-18.58 h 56.08 a 5.63,5.63 0 0 1 5.63,5.63 v 53.65 a 5.63,5.63 0 0 1 -5.63,5.63 z m -67.22,-44.78 a 9.5,9.5 0 1 0 -9.4999995,-9.5 9.5,9.5 0 0 0 9.4999995,9.5 z M 6.1475669e-5,31 V 49.35 A 7.32,7.32 0 0 0 5.9000615,56.53 v 37 a 4.51,4.51 0 1 0 8.9999995,0 V 67.21 a 1.71,1.71 0 0 1 1.37,-1.72 1.65,1.65 0 0 1 1.93,1.63 v 26.37 a 4.51,4.51 0 1 0 9,0 V 34.65 l 8.46,7 a 4.25,4.25 0 0 0 5.33,0.06 l 12.49,-9.84 a 4.37,4.37 0 0 0 1.23,-5.68 4.25,4.25 0 0 0 -6.26,-1.13 l -9.98,7.84 -10,-8.25 a 4.23,4.23 0 0 0 -2.7,-1 H 7.3200615 A 7.32,7.32 0 0 0 6.1475669e-5,31 Z"
     id="path4"
     inkscape:connector-curvature="0"
     style="stroke:none;stroke-opacity:1;fill:#b7e3ef;fill-opacity:1" />
</svg>
